<svg width="24" height="24" viewBox="0 0 24 24" fill="none" xmlns="http://www.w3.org/2000/svg">
<g clip-path="url(#clip0_1_4460)">
<path d="M12 24C18.6274 24 24 18.6274 24 12C24 5.37258 18.6274 0 12 0C5.37258 0 0 5.37258 0 12C0 18.6274 5.37258 24 12 24Z" fill="#F6F6F6"/>
<path d="M3.51471 20.485C-1.17157 15.7987 -1.17157 8.20073 3.51471 3.5144C3.51438 3.51492 10.4348 11.9997 10.4348 11.9997L3.51471 20.485Z" fill="black"/>
<path d="M10.4346 12.0001L1.59138 6.02417C1.31721 6.50075 1.07543 6.99819 0.867676 7.51306L5.34466 12.0002L0.867816 16.4875C1.07538 17.002 1.31693 17.4991 1.59091 17.9754L10.4346 12.0001Z" fill="#FFDA44"/>
<path d="M23.8982 10.4346H10.4342L3.51434 3.51465C2.76865 4.26034 2.12079 5.10366 1.59129 6.02387L7.55562 11.9998L1.59082 17.9749C2.12032 18.8954 2.76846 19.739 3.51434 20.4849L10.4342 13.565H23.8982C23.9649 13.0526 23.9997 12.5303 23.9997 11.9998C23.9997 11.4693 23.9649 10.9469 23.8982 10.4346Z" fill="#6DA544"/>
<path d="M4.69385 21.5191C6.71739 23.0745 9.25038 23.9999 11.9999 23.9999C17.5442 23.9999 22.2095 20.2396 23.5865 15.1304H11.0827L4.69385 21.5191Z" fill="#0052B4"/>
<path d="M23.5865 8.86955C22.2095 3.76036 17.5442 0 11.9999 0C9.25038 0 6.71739 0.925359 4.69385 2.48077L11.0826 8.86955H23.5865Z" fill="#D80027"/>
</g>
<defs>
<clipPath id="clip0_1_4460">
<rect width="24" height="24" fill="white"/>
</clipPath>
</defs>
</svg>
