<svg width="22" height="22" viewBox="0 0 22 22" fill="none" xmlns="http://www.w3.org/2000/svg">
<g clip-path="url(#clip0_1_4420)">
<path d="M11.6403 21.9997H10.351C9.98279 21.9534 9.61243 21.92 9.24637 21.8592C6.94829 21.4751 4.94574 20.4867 3.29741 18.8402C0.824917 16.3716 -0.265179 13.3687 0.0529668 9.8929C0.265064 7.55935 1.17859 5.49753 2.73918 3.74508C4.81224 1.41799 7.42255 0.164859 10.5335 0.0131271C12.704 -0.0944839 14.7448 0.413443 16.6025 1.54605C19.4583 3.28773 21.2121 5.81014 21.8285 9.10572C21.9055 9.51841 21.9437 9.93809 21.9997 10.3545V11.6459C21.9821 11.8001 21.9641 11.9547 21.9458 12.1097C21.6826 14.4771 20.7782 16.5648 19.1821 18.3355C17.4875 20.2149 15.388 21.389 12.8897 21.8329C12.4768 21.9017 12.0575 21.9432 11.6403 21.9997ZM11.0002 1.70693C5.8765 1.70155 1.71368 5.85641 1.70076 10.9895C1.68784 16.1042 5.84582 20.2709 10.9803 20.2908C16.1013 20.3107 20.2932 16.1284 20.2905 10.9981C20.2878 5.86771 16.1315 1.71285 11.0002 1.70693Z" fill="white"/>
<path d="M10.1404 8.50844C10.1404 7.67069 10.1334 6.83294 10.1404 5.99519C10.1479 5.34952 10.7325 4.93952 11.308 5.16497C11.6557 5.30164 11.8463 5.61586 11.849 6.05814C11.849 7.47592 11.8576 8.89369 11.8425 10.3115C11.8398 10.5649 11.9222 10.7086 12.1198 10.8533C13.0381 11.5264 13.9436 12.2162 14.8555 12.8979C15.1726 13.1346 15.3228 13.4413 15.2237 13.8325C15.0768 14.4179 14.4125 14.66 13.9081 14.3119C13.5899 14.0929 13.2868 13.8519 12.9773 13.62C12.2005 13.0362 11.4286 12.4443 10.6394 11.8724C10.2873 11.6173 10.1275 11.3047 10.1361 10.8716C10.1511 10.0844 10.1404 9.29616 10.1404 8.50844Z" fill="white"/>
</g>
<defs>
<clipPath id="clip0_1_4420">
<rect width="22" height="22" fill="white"/>
</clipPath>
</defs>
</svg>
