<svg width="18" height="20" viewBox="0 0 18 20" fill="none" xmlns="http://www.w3.org/2000/svg">
<g clip-path="url(#clip0_1_4409)">
<path d="M8.22974 0C7.8928 0.0488998 7.55141 0.0767726 7.21942 0.146699C3.81051 0.876773 1.56805 2.89682 0.558716 6.19609C-0.0380889 8.14768 0.191147 10.0665 1.05276 11.9174C1.76369 13.4479 2.77154 14.7721 3.91822 16.0034C5.11775 17.2944 6.46007 18.4362 7.78411 19.5956C8.39277 20.1291 9.16397 20.1384 9.77264 19.6073C11.3259 18.2528 12.8994 16.9178 14.2437 15.3472C15.3306 14.0797 16.2629 12.7193 16.833 11.1418C17.6185 8.96332 17.4881 6.81956 16.4615 4.76234C15.2279 2.29584 13.2166 0.772127 10.4994 0.173594C10.117 0.089486 9.72274 0.0567237 9.33393 0H8.22974ZM1.42774 8.39364C1.43169 8.32176 1.43663 8.25036 1.4396 8.17897C1.53001 6.15697 2.30763 4.43227 3.83423 3.0934C6.0263 1.17017 8.56322 0.648409 11.3141 1.64499C13.9162 2.58533 15.469 4.49242 16.0164 7.18044C16.2703 8.42738 16.133 9.64988 15.6814 10.8406C15.138 12.2797 14.2645 13.5174 13.2636 14.6733C11.979 16.156 10.4771 17.4117 9.01477 18.7105C8.84087 18.8645 8.72477 18.8601 8.54543 18.7061C8.3073 18.5012 8.0751 18.2895 7.83944 18.0821C6.72389 17.1012 5.60834 16.1208 4.61037 15.0186C3.4632 13.7521 2.45733 12.3941 1.86151 10.7785C1.57743 10.0093 1.40897 9.21711 1.42774 8.39364Z" fill="white"/>
<path d="M5.02164 8.13583C5.02164 10.1852 6.71523 11.8644 8.78231 11.8635C10.8494 11.8625 12.544 10.1837 12.543 8.13485C12.5419 7.14779 12.1453 6.20145 11.4402 5.50345C10.7351 4.80544 9.77906 4.41279 8.78181 4.41162C7.78457 4.41305 6.82862 4.80595 6.12369 5.50414C5.41876 6.20232 5.02243 7.14877 5.02164 8.13583ZM6.20488 8.13974C6.20381 7.46558 6.47219 6.81836 6.95145 6.33933C7.43071 5.86029 8.08194 5.58832 8.76304 5.58277C9.10202 5.58045 9.43813 5.64432 9.75214 5.77071C10.0662 5.8971 10.3519 6.08353 10.593 6.31935C10.8342 6.55516 11.026 6.83572 11.1575 7.14498C11.2889 7.45424 11.3575 7.78613 11.3592 8.12165C11.3619 8.7994 11.0929 9.45055 10.6114 9.93241C10.1299 10.4143 9.47495 10.6875 8.79021 10.6923C7.37478 10.6987 6.20834 9.55001 6.20488 8.13974Z" fill="white"/>
</g>
<defs>
<clipPath id="clip0_1_4409">
<rect width="17.1097" height="20" fill="white" transform="matrix(-1 0 0 1 17.3354 0)"/>
</clipPath>
</defs>
</svg>
