<svg width="19" height="20" viewBox="0 0 19 20" fill="none" xmlns="http://www.w3.org/2000/svg">
<g clip-path="url(#clip0_1_5895)">
<path d="M8.9352 0C8.56938 0.0488998 8.19873 0.0767726 7.83828 0.146699C4.13718 0.876773 1.70251 2.89682 0.606661 6.19609C-0.0412984 8.14768 0.207587 10.0665 1.14305 11.9174C1.91492 13.4479 3.00916 14.7721 4.25412 16.0034C5.55647 17.2944 7.01385 18.4362 8.45137 19.5956C9.11221 20.1291 9.94951 20.1384 10.6103 19.6073C12.2968 18.2528 14.0052 16.9178 15.4647 15.3472C16.6447 14.0797 17.6569 12.7193 18.2759 11.1418C19.1288 8.96332 18.9872 6.81956 17.8725 4.76234C16.5332 2.29584 14.3495 0.772127 11.3994 0.173594C10.9842 0.089486 10.5562 0.0567237 10.134 0H8.9352ZM1.55017 8.39364C1.55446 8.32176 1.55983 8.25036 1.56305 8.17897C1.6612 6.15697 2.50548 4.43227 4.16293 3.0934C6.5429 1.17017 9.29726 0.648409 12.2839 1.64499C15.1091 2.58533 16.7949 4.49242 17.3892 7.18044C17.665 8.42738 17.5158 9.64988 17.0256 10.8406C16.4355 12.2797 15.4872 13.5174 14.4005 14.6733C13.0059 16.156 11.3752 17.4117 9.78752 18.7105C9.59871 18.8645 9.47266 18.8601 9.27795 18.7061C9.01941 18.5012 8.76731 18.2895 8.51145 18.0821C7.30028 17.1012 6.08911 16.1208 5.0056 15.0186C3.7601 13.7521 2.66801 12.3941 2.02112 10.7785C1.7127 10.0093 1.52979 9.21711 1.55017 8.39364Z" fill="white"/>
<path d="M5.45216 8.13595C5.45216 10.1853 7.2909 11.8646 9.53516 11.8636C11.7794 11.8626 13.6192 10.1839 13.6182 8.13497C13.617 7.14791 13.1865 6.20157 12.4209 5.50357C11.6553 4.80557 10.6173 4.41291 9.53462 4.41174C8.4519 4.41317 7.41401 4.80607 6.64866 5.50426C5.88331 6.20244 5.45301 7.14889 5.45216 8.13595ZM6.73681 8.13986C6.73565 7.4657 7.02704 6.81848 7.54737 6.33945C8.06771 5.86041 8.77476 5.58844 9.51424 5.58289C9.88227 5.58057 10.2472 5.64444 10.5881 5.77083C10.9291 5.89722 11.2393 6.08365 11.5011 6.31947C11.7629 6.55528 11.9711 6.83585 12.1139 7.14511C12.2566 7.45437 12.3311 7.78625 12.333 8.12177C12.3358 8.79952 12.0439 9.45067 11.521 9.93253C10.9982 10.4144 10.2872 10.6876 9.54374 10.6924C8.00698 10.6988 6.74057 9.55013 6.73681 8.13986Z" fill="white"/>
</g>
<defs>
<clipPath id="clip0_1_5895">
<rect width="18.5763" height="20" fill="white" transform="matrix(-1 0 0 1 18.8218 0)"/>
</clipPath>
</defs>
</svg>
