<svg width="19" height="20" viewBox="0 0 19 20" fill="none" xmlns="http://www.w3.org/2000/svg">
<g clip-path="url(#clip0_2_20154)">
<path d="M4.06149 0C4.67026 0.124565 5.10877 0.526809 5.52452 0.974206C6.26048 1.76675 7.02268 2.53127 7.74083 3.34354C8.41493 4.10495 8.41196 5.13261 7.74726 5.90595C7.28698 6.4421 6.78709 6.944 6.29661 7.44797C6.19763 7.55177 6.17486 7.62236 6.23772 7.75938C6.7282 8.83583 7.43842 9.74516 8.20557 10.6093C8.99103 11.4917 9.85469 12.2847 10.8287 12.9361C11.0945 13.1141 11.3806 13.2589 11.6533 13.4261C11.7463 13.4832 11.8018 13.466 11.875 13.3877C12.2883 12.946 12.6951 12.4975 13.1287 12.0792C13.3628 11.8534 13.6236 11.6297 13.9112 11.4979C14.6506 11.1585 15.3282 11.3484 15.8939 11.9235C16.714 12.7539 17.5083 13.6176 18.3235 14.4568C19.1649 15.3252 19.2381 16.4764 18.4547 17.3634C17.8771 18.0168 17.2886 18.6609 16.6595 19.2604C15.9864 19.8993 15.146 20.0576 14.2606 19.9829C12.8698 19.8656 11.5969 19.3502 10.3635 18.705C8.5401 17.7622 6.86916 16.525 5.41167 15.0387C3.21565 12.7877 1.44676 10.232 0.437096 7.15472C0.154984 6.29418 -0.0197283 5.41288 0.00353354 4.49629C0.0248157 3.63575 0.291092 2.87746 0.868679 2.25619C1.37087 1.71537 1.87933 1.18078 2.39406 0.652411C2.71901 0.31828 3.13029 0.0914455 3.57695 0H4.06149ZM14.5887 18.9926C15.1708 19.0071 15.7063 18.8524 16.128 18.4217C16.6849 17.8559 17.2259 17.2732 17.7509 16.6736C18.1384 16.2324 18.1364 15.7393 17.7405 15.3112C16.9016 14.406 16.0473 13.5153 15.1876 12.6314C14.8595 12.2941 14.4452 12.2847 14.0671 12.565C13.9676 12.6435 13.8745 12.7303 13.7884 12.8245C13.3262 13.3062 12.8674 13.7915 12.4026 14.2726C12.0943 14.5923 11.7676 14.6463 11.385 14.4408C11.1093 14.2928 10.8317 14.146 10.5669 13.9778C9.41173 13.2449 8.39662 12.332 7.48 11.297C6.61189 10.3161 5.819 9.27752 5.2914 8.04277C5.06571 7.51337 5.11917 7.22635 5.51858 6.82151C5.98728 6.34712 6.45895 5.87377 6.90885 5.38018C7.382 4.86116 7.3721 4.42518 6.91231 3.89163C6.89548 3.87242 6.87915 3.8527 6.86282 3.83454C6.09023 3.02382 5.32011 2.21155 4.54307 1.40655C4.42655 1.2805 4.28985 1.17686 4.1392 1.10033C3.69772 0.892719 3.34433 1.09566 3.035 1.41486C2.56976 1.89339 2.0976 2.36622 1.6576 2.86812C1.43784 3.11359 1.25929 3.3963 1.12951 3.70426C0.869667 4.35252 0.941432 5.03452 1.07011 5.7025C1.31758 6.97566 1.78381 8.16681 2.39109 9.28998C4.56237 13.3046 7.60126 16.3404 11.6464 18.2172C12.5847 18.6557 13.5568 18.9552 14.5887 18.9926Z" fill="white"/>
</g>
<defs>
<clipPath id="clip0_2_20154">
<rect width="19" height="20" fill="white"/>
</clipPath>
</defs>
</svg>
