<svg width="22" height="14" viewBox="0 0 22 14" fill="none" xmlns="http://www.w3.org/2000/svg">
<g clip-path="url(#clip0_1_5928)">
<path d="M0.719727 1.55464C0.838832 1.27626 0.91569 0.970633 1.08722 0.727299C1.43385 0.23041 1.9627 0.0162769 2.58215 0.00119019C2.61575 0.00119019 2.64985 0.00119019 2.68395 0.00119019H19.5731C20.3666 0.00119019 20.9871 0.298545 21.3327 0.996428C21.4552 1.24811 21.5202 1.52185 21.5235 1.79943C21.5358 5.26516 21.5376 8.73106 21.5291 12.1971C21.5291 13.2585 20.7244 13.9944 19.5949 13.9944C14.9274 13.9944 10.2597 13.9944 5.59186 13.9944C4.6436 13.9944 3.69431 13.9754 2.74656 13.9997C1.70667 14.0265 0.890241 13.4157 0.738559 12.475C0.73455 12.4627 0.728904 12.4509 0.721761 12.44L0.719727 1.55464ZM2.83105 1.17552C2.8677 1.21786 2.88195 1.2383 2.90181 1.25582C5.2018 3.44453 7.50367 5.63114 9.8074 7.81563C10.0046 8.0013 10.24 8.1458 10.4986 8.24C11.2621 8.51205 11.9309 8.31349 12.5005 7.77134C14.7571 5.62416 17.0136 3.47714 19.2702 1.33028C19.3155 1.28697 19.3577 1.24025 19.4204 1.17552H2.83105ZM2.94354 12.8113H19.3094L14.1761 7.80346C13.8799 8.09206 13.6076 8.3607 13.3322 8.62593C12.7723 9.16662 12.0974 9.48052 11.2962 9.52043C10.3637 9.5691 9.57325 9.2552 8.91614 8.62691C8.63975 8.36216 8.36795 8.09157 8.07222 7.80492L2.94354 12.8113ZM7.0756 7.00873L1.95252 2.03011V12.0034C3.69635 10.3025 5.41371 8.63129 7.0756 7.00971V7.00873ZM20.2968 12.0097V1.99264L15.1473 6.99267L20.2968 12.0097Z" fill="white"/>
</g>
<defs>
<clipPath id="clip0_1_5928">
<rect width="20.8135" height="14" fill="white" transform="translate(0.719727)"/>
</clipPath>
</defs>
</svg>
