<svg width="20" height="20" viewBox="0 0 20 20" fill="none" xmlns="http://www.w3.org/2000/svg">
<g clip-path="url(#clip0_1_5918)">
<path d="M4.56149 0C5.17026 0.124565 5.60877 0.526809 6.02452 0.974206C6.76048 1.76675 7.52268 2.53127 8.24083 3.34354C8.91493 4.10495 8.91196 5.13261 8.24726 5.90595C7.78698 6.4421 7.28709 6.944 6.79661 7.44797C6.69763 7.55177 6.67486 7.62236 6.73772 7.75938C7.2282 8.83583 7.93842 9.74516 8.70557 10.6093C9.49103 11.4917 10.3547 12.2847 11.3287 12.9361C11.5945 13.1141 11.8806 13.2589 12.1533 13.4261C12.2463 13.4832 12.3018 13.466 12.375 13.3877C12.7883 12.946 13.1951 12.4975 13.6287 12.0792C13.8628 11.8534 14.1236 11.6297 14.4112 11.4979C15.1506 11.1585 15.8282 11.3484 16.3939 11.9235C17.214 12.7539 18.0083 13.6176 18.8235 14.4568C19.6649 15.3252 19.7381 16.4764 18.9547 17.3634C18.3771 18.0168 17.7886 18.6609 17.1595 19.2604C16.4864 19.8993 15.646 20.0576 14.7606 19.9829C13.3698 19.8656 12.0969 19.3502 10.8635 18.705C9.0401 17.7622 7.36916 16.525 5.91167 15.0387C3.71565 12.7877 1.94676 10.232 0.937096 7.15472C0.654984 6.29418 0.480272 5.41288 0.503534 4.49629C0.524816 3.63575 0.791092 2.87746 1.36868 2.25619C1.87087 1.71537 2.37933 1.18078 2.89406 0.652411C3.21901 0.31828 3.63029 0.0914455 4.07695 0H4.56149ZM15.0887 18.9926C15.6708 19.0071 16.2063 18.8524 16.628 18.4217C17.1849 17.8559 17.7259 17.2732 18.2509 16.6736C18.6384 16.2324 18.6364 15.7393 18.2405 15.3112C17.4016 14.406 16.5473 13.5153 15.6876 12.6314C15.3595 12.2941 14.9452 12.2847 14.5671 12.565C14.4676 12.6435 14.3745 12.7303 14.2884 12.8245C13.8262 13.3062 13.3674 13.7915 12.9026 14.2726C12.5943 14.5923 12.2676 14.6463 11.885 14.4408C11.6093 14.2928 11.3317 14.146 11.0669 13.9778C9.91173 13.2449 8.89662 12.332 7.98 11.297C7.11189 10.3161 6.319 9.27752 5.7914 8.04277C5.56571 7.51337 5.61917 7.22635 6.01858 6.82151C6.48728 6.34712 6.95895 5.87377 7.40885 5.38018C7.882 4.86116 7.8721 4.42518 7.41231 3.89163C7.39548 3.87242 7.37915 3.8527 7.36282 3.83454C6.59023 3.02382 5.82011 2.21155 5.04307 1.40655C4.92655 1.2805 4.78985 1.17686 4.6392 1.10033C4.19772 0.892719 3.84433 1.09566 3.535 1.41486C3.06976 1.89339 2.5976 2.36622 2.1576 2.86812C1.93784 3.11359 1.75929 3.3963 1.62951 3.70426C1.36967 4.35252 1.44143 5.03452 1.57011 5.7025C1.81758 6.97566 2.28381 8.16681 2.89109 9.28998C5.06237 13.3046 8.10126 16.3404 12.1464 18.2172C13.0847 18.6557 14.0568 18.9552 15.0887 18.9926Z" fill="white"/>
</g>
<defs>
<clipPath id="clip0_1_5918">
<rect width="19" height="20" fill="white" transform="translate(0.5)"/>
</clipPath>
</defs>
</svg>
