<svg width="21" height="20" viewBox="0 0 21 20" fill="none" xmlns="http://www.w3.org/2000/svg">
<g clip-path="url(#clip0_1_4431)">
<path d="M4.42709 0C5.07471 0.124565 5.54122 0.526809 5.9835 0.974206C6.76644 1.76675 7.57729 2.53127 8.34128 3.34354C9.0584 4.10495 9.05525 5.13261 8.34812 5.90595C7.85845 6.4421 7.32666 6.944 6.80488 7.44797C6.69957 7.55177 6.67535 7.62236 6.74222 7.75938C7.26401 8.83583 8.01957 9.74516 8.83568 10.6093C9.67128 11.4917 10.5901 12.2847 11.6263 12.9361C11.909 13.1141 12.2133 13.2589 12.5035 13.4261C12.6024 13.4832 12.6614 13.466 12.7393 13.3877C13.179 12.946 13.6118 12.4975 14.073 12.0792C14.3221 11.8534 14.5996 11.6297 14.9055 11.4979C15.6921 11.1585 16.4129 11.3484 17.0147 11.9235C17.8872 12.7539 18.7322 13.6176 19.5994 14.4568C20.4945 15.3252 20.5725 16.4764 19.739 17.3634C19.1245 18.0168 18.4985 18.6609 17.8293 19.2604C17.1132 19.8993 16.2191 20.0576 15.2772 19.9829C13.7977 19.8656 12.4434 19.3502 11.1313 18.705C9.19157 17.7622 7.41397 16.525 5.86345 15.0387C3.52726 12.7877 1.64546 10.232 0.571347 7.15472C0.271228 6.29418 0.0853642 5.41288 0.110111 4.49629C0.132751 3.63575 0.416024 2.87746 1.03048 2.25619C1.56473 1.71537 2.10564 1.18078 2.65323 0.652411C2.99892 0.31828 3.43645 0.0914455 3.91162 0H4.42709ZM15.6263 18.9926C16.2455 19.0071 16.8152 18.8524 17.2638 18.4217C17.8563 17.8559 18.4318 17.2732 18.9902 16.6736C19.4025 16.2324 19.4004 15.7393 18.9792 15.3112C18.0867 14.406 17.1779 13.5153 16.2634 12.6314C15.9143 12.2941 15.4736 12.2847 15.0713 12.565C14.9655 12.6435 14.8664 12.7303 14.7749 12.8245C14.2831 13.3062 13.795 13.7915 13.3006 14.2726C12.9726 14.5923 12.6251 14.6463 12.2181 14.4408C11.9248 14.2928 11.6294 14.146 11.3477 13.9778C10.1188 13.2449 9.03892 12.332 8.0638 11.297C7.14027 10.3161 6.29678 9.27752 5.73551 8.04277C5.49541 7.51337 5.55227 7.22635 5.97718 6.82151C6.4758 6.34712 6.97758 5.87377 7.45619 5.38018C7.95955 4.86116 7.94902 4.42518 7.45987 3.89163C7.44197 3.87242 7.4246 3.8527 7.40722 3.83454C6.58532 3.02382 5.76604 2.21155 4.9394 1.40655C4.81545 1.2805 4.67003 1.17686 4.50975 1.10033C4.04009 0.892719 3.66415 1.09566 3.33508 1.41486C2.84014 1.89339 2.33784 2.36622 1.86976 2.86812C1.63597 3.11359 1.44602 3.3963 1.30796 3.70426C1.03153 4.35252 1.10788 5.03452 1.24477 5.7025C1.50803 6.97566 2.00402 8.16681 2.65007 9.28998C4.95993 13.3046 8.1928 16.3404 12.4961 18.2172C13.4944 18.6557 14.5285 18.9552 15.6263 18.9926Z" fill="white"/>
</g>
<defs>
<clipPath id="clip0_1_4431">
<rect width="20.2128" height="20" fill="white" transform="translate(0.106445)"/>
</clipPath>
</defs>
</svg>
