<svg width="17" height="20" viewBox="0 0 17 20" fill="none" xmlns="http://www.w3.org/2000/svg">
<g clip-path="url(#clip0_2_20142)">
<path d="M7.63621 0C7.31948 0.0488998 6.99858 0.0767726 6.6865 0.146699C3.48214 0.876773 1.37422 2.89682 0.425446 6.19609C-0.13555 8.14768 0.0799318 10.0665 0.889848 11.9174C1.55812 13.4479 2.5055 14.7721 3.58338 16.0034C4.71094 17.2944 5.97272 18.4362 7.21732 19.5956C7.78946 20.1291 8.51439 20.1384 9.08653 19.6073C10.5466 18.2528 12.0257 16.9178 13.2894 15.3472C14.311 14.0797 15.1874 12.7193 15.7233 11.1418C16.4617 8.96332 16.3391 6.81956 15.3741 4.76234C14.2145 2.29584 12.3239 0.772127 9.76967 0.173594C9.41022 0.089486 9.03963 0.0567237 8.67414 0H7.63621ZM1.24233 8.39364C1.24604 8.32176 1.25069 8.25036 1.25347 8.17897C1.33846 6.15697 2.06943 4.43227 3.50443 3.0934C5.56498 1.17017 7.94968 0.648409 10.5355 1.64499C12.9815 2.58533 14.4411 4.49242 14.9556 7.18044C15.1943 8.42738 15.0652 9.64988 14.6408 10.8406C14.1299 12.2797 13.3089 13.5174 12.368 14.6733C11.1605 16.156 9.74877 17.4117 8.37414 18.7105C8.21067 18.8645 8.10154 18.8601 7.93296 18.7061C7.70912 18.5012 7.49085 18.2895 7.26933 18.0821C6.22071 17.1012 5.17209 16.1208 4.234 15.0186C3.15566 13.7521 2.21014 12.3941 1.65007 10.7785C1.38304 10.0093 1.22468 9.21711 1.24233 8.39364Z" fill="white"/>
<path d="M4.62038 8.13583C4.62038 10.1852 6.21235 11.8644 8.15541 11.8635C10.0985 11.8625 11.6914 10.1837 11.6904 8.13485C11.6894 7.14779 11.3167 6.20145 10.6539 5.50345C9.99105 4.80544 9.09235 4.41279 8.15494 4.41162C7.21753 4.41305 6.31894 4.80595 5.65631 5.50414C4.99367 6.20232 4.62112 7.14877 4.62038 8.13583ZM5.73263 8.13974C5.73162 7.46558 5.9839 6.81836 6.4344 6.33933C6.88491 5.86029 7.49706 5.58832 8.1373 5.58277C8.45593 5.58045 8.77188 5.64432 9.06705 5.77071C9.36222 5.8971 9.63083 6.08353 9.8575 6.31935C10.0842 6.55516 10.2645 6.83572 10.388 7.14498C10.5116 7.45424 10.5761 7.78613 10.5777 8.12165C10.5802 8.7994 10.3274 9.45055 9.87475 9.93241C9.4221 10.4143 8.80649 10.6875 8.16284 10.6923C6.83233 10.6987 5.73588 9.55001 5.73263 8.13974Z" fill="white"/>
</g>
<defs>
<clipPath id="clip0_2_20142">
<rect width="16.0831" height="20" fill="white" transform="matrix(-1 0 0 1 16.1958 0)"/>
</clipPath>
</defs>
</svg>
