<svg width="27" height="22" viewBox="0 0 27 22" fill="none" xmlns="http://www.w3.org/2000/svg">
<g clip-path="url(#clip0_1_5906)">
<path d="M14.2505 21.9999H12.7614C12.3361 21.9536 11.9083 21.9203 11.4855 21.8595C8.8312 21.4753 6.51823 20.4869 4.61438 18.8405C1.75861 16.3719 0.499529 13.369 0.866993 9.89314C1.11197 7.5596 2.16711 5.49777 3.96961 3.74532C6.36403 1.41824 9.37897 0.165103 12.9722 0.0133713C15.4791 -0.0942398 17.8362 0.413687 19.9819 1.54629C23.2804 3.28798 25.3061 5.81038 26.0181 9.10597C26.107 9.51866 26.1511 9.93834 26.2158 10.3548V11.6461C26.1955 11.8004 26.1747 11.955 26.1536 12.1099C25.8496 14.4774 24.805 16.565 22.9615 18.3358C21.0041 20.2152 18.5792 21.3892 15.6936 21.8331C15.2167 21.902 14.7324 21.9434 14.2505 21.9999ZM13.5112 1.70717C7.59326 1.70179 2.78514 5.85665 2.77022 10.9897C2.7553 16.1044 7.55782 20.2711 13.4882 20.2911C19.4031 20.311 24.2448 16.1287 24.2417 10.9983C24.2386 5.86795 19.4379 1.71309 13.5112 1.70717Z" fill="white"/>
<path d="M12.518 8.50826C12.518 7.67051 12.51 6.83276 12.518 5.99501C12.5268 5.34934 13.202 4.93934 13.8667 5.16479C14.2683 5.30145 14.4884 5.61568 14.4915 6.05796C14.4915 7.47573 14.5015 8.89351 14.4841 10.3113C14.481 10.5647 14.5761 10.7084 14.8043 10.8531C15.865 11.5262 16.9108 12.216 17.9641 12.8977C18.3303 13.1345 18.5038 13.4412 18.3894 13.8323C18.2196 14.4177 17.4524 14.6598 16.8698 14.3117C16.5023 14.0927 16.1523 13.8517 15.7948 13.6198C14.8975 13.036 14.0059 12.4441 13.0944 11.8722C12.6878 11.6171 12.5031 11.3045 12.5131 10.8714C12.5305 10.0842 12.518 9.29597 12.518 8.50826Z" fill="white"/>
</g>
<defs>
<clipPath id="clip0_1_5906">
<rect width="25.4103" height="22" fill="white" transform="translate(0.805664)"/>
</clipPath>
</defs>
</svg>
