<svg width="22" height="14" viewBox="0 0 22 14" fill="none" xmlns="http://www.w3.org/2000/svg">
<g clip-path="url(#clip0_2_20166)">
<path d="M0.220215 1.55442C0.339321 1.27605 0.416178 0.97042 0.587711 0.727085C0.934339 0.230197 1.46319 0.0160633 2.08264 0.000976562C2.11623 0.000976562 2.15034 0.000976562 2.18444 0.000976562H19.0735C19.8671 0.000976562 20.4875 0.298332 20.8331 0.996215C20.9557 1.2479 21.0207 1.52163 21.024 1.79922C21.0362 5.26495 21.0381 8.73084 21.0296 12.1969C21.0296 13.2583 20.2249 13.9942 19.0954 13.9942C14.4279 13.9942 9.76021 13.9942 5.09235 13.9942C4.14409 13.9942 3.1948 13.9752 2.24705 13.9995C1.20716 14.0263 0.390729 13.4155 0.239048 12.4748C0.235039 12.4625 0.229393 12.4507 0.22225 12.4397L0.220215 1.55442ZM2.33154 1.17531C2.36819 1.21765 2.38244 1.23809 2.40229 1.25561C4.70229 3.44432 7.00415 5.63092 9.30788 7.81542C9.5051 8.00108 9.74047 8.14559 9.9991 8.23979C10.7626 8.51184 11.4314 8.31328 12.001 7.77113C14.2576 5.62395 16.5141 3.47693 18.7707 1.33007C18.816 1.28676 18.8582 1.24004 18.9208 1.17531H2.33154ZM2.44403 12.8111H18.8099L13.6766 7.80325C13.3804 8.09184 13.1081 8.36048 12.8327 8.62572C12.2728 9.16641 11.5979 9.48031 10.7967 9.52022C9.86422 9.56888 9.07374 9.25498 8.41663 8.62669C8.14024 8.36194 7.86843 8.09136 7.57271 7.80471L2.44403 12.8111ZM6.57608 7.00852L1.45301 2.0299V12.0032C3.19684 10.3023 4.9142 8.63107 6.57608 7.00949V7.00852ZM19.7973 12.0095V1.99242L14.6478 6.99246L19.7973 12.0095Z" fill="white"/>
</g>
<defs>
<clipPath id="clip0_2_20166">
<rect width="20.8135" height="14" fill="white" transform="translate(0.220215)"/>
</clipPath>
</defs>
</svg>
