<svg width="23" height="14" viewBox="0 0 23 14" fill="none" xmlns="http://www.w3.org/2000/svg">
<g clip-path="url(#clip0_1_4441)">
<path d="M0.212402 1.55442C0.339111 1.27605 0.420874 0.97042 0.603355 0.727085C0.972109 0.230197 1.53472 0.0160633 2.19371 0.000976562C2.22944 0.000976562 2.26572 0.000976562 2.302 0.000976562H20.2691C21.1133 0.000976562 21.7734 0.298332 22.1411 0.996215C22.2714 1.2479 22.3406 1.52163 22.3441 1.79922C22.3571 5.26495 22.3591 8.73084 22.3501 12.1969C22.3501 13.2583 21.494 13.9942 20.2924 13.9942C15.327 13.9942 10.3613 13.9942 5.39553 13.9942C4.38673 13.9942 3.37686 13.9752 2.36861 13.9995C1.26235 14.0263 0.393801 13.4155 0.232437 12.4748C0.228172 12.4625 0.222166 12.4507 0.214567 12.4397L0.212402 1.55442ZM2.45849 1.17531C2.49748 1.21765 2.51264 1.23809 2.53376 1.25561C4.98057 3.44432 7.42936 5.63092 9.88013 7.81542C10.0899 8.00108 10.3403 8.14559 10.6155 8.23979C11.4277 8.51184 12.1392 8.31328 12.7451 7.77113C15.1457 5.62395 17.5463 3.47693 19.9469 1.33007C19.9951 1.28676 20.0401 1.24004 20.1067 1.17531H2.45849ZM2.57816 12.8111H19.9886L14.5277 7.80325C14.2126 8.09184 13.9229 8.36048 13.6299 8.62572C13.0343 9.16641 12.3163 9.48031 11.464 9.52022C10.472 9.56888 9.63105 9.25498 8.93199 8.62669C8.63796 8.36194 8.34881 8.09136 8.0342 7.80471L2.57816 12.8111ZM6.97397 7.00852L1.52389 2.0299V12.0032C3.37902 10.3023 5.20601 8.63107 6.97397 7.00949V7.00852ZM21.0391 12.0095V1.99242L15.5609 6.99246L21.0391 12.0095Z" fill="white"/>
</g>
<defs>
<clipPath id="clip0_1_4441">
<rect width="22.142" height="14" fill="white" transform="translate(0.212402)"/>
</clipPath>
</defs>
</svg>
