<svg width="12" height="13" viewBox="0 0 12 13" fill="none" xmlns="http://www.w3.org/2000/svg">
<path d="M10.4196 0.576951L0.674556 5.07395C0.437573 5.1793 0.24377 5.36256 0.125348 5.59328C0.00692595 5.82401 -0.0289847 6.08831 0.0235827 6.34227C0.0761501 6.59623 0.214031 6.82456 0.414314 6.98931C0.614598 7.15407 0.865226 7.24534 1.12456 7.24795H5.24756V11.371C5.25017 11.6303 5.34144 11.8809 5.50619 12.0812C5.67095 12.2815 5.89928 12.4194 6.15324 12.4719C6.4072 12.5245 6.6715 12.4886 6.90222 12.3702C7.13295 12.2517 7.31621 12.0579 7.42156 11.821L11.9216 2.07595C11.9983 1.86658 12.0136 1.63962 11.9656 1.42184C11.9176 1.20407 11.8083 1.00457 11.6506 0.846878C11.4929 0.689191 11.2934 0.579897 11.0757 0.531893C10.8579 0.483888 10.6309 0.499175 10.4216 0.575951L10.4196 0.576951Z" fill="white"/>
</svg>
